<svg version="1.2" xmlns="http://www.w3.org/2000/svg" viewBox="0 0 560 543" width="560" height="543">
	<title>logo</title>
	<style>
		.s0 { fill: #ffffff } 
		.s1 { fill: #000000 } 
	</style>
	<path id="Forma 1" fill-rule="evenodd" class="s0" d="m279 540.7c-153.2 0-277-120.4-277-269.4 0-149 123.8-269.4 277-269.4 153.2 0 277 120.4 277 269.4 0 149-123.8 269.4-277 269.4z"/>
	<g>
		<path class="s1" d="m239 184.1c-0.6 3.5-1.4 13.8-1.7 22.9-0.4 14.1-0.2 17.8 1.5 25.7 2.2 9.6 5 16.2 8.7 20.3 4.6 5.1 3.8 7.6-4.2 13.9l-5.2 4.2-7.3-1.6c-10.5-2.1-19.1-6.8-27.8-15.2-12.7-12.1-18.9-25.1-19-39.7 0-7.1-0.2-7.7-1.7-7.1-6.3 2.7-23.2 6.6-30.5 7.2-7.2 0.5-8.6 0.8-7.7 1.9 0.6 0.8 1.6 1.4 2.1 1.4 0.6 0 2.7 1.3 4.7 2.9 2 1.5 5.1 3.6 6.9 4.5l3.3 1.7-2.6 2c-4.3 3.5-29.4 15.5-41 19.7-18.9 6.9-54.6 15.7-74.2 18.3-4 0.5-9.4 1.4-12 2-5 1-21.3 2.8-27.2 2.9-4.6 0-3.3 1.1 5.9 4.9 17.1 7 33.1 19.3 40.3 30.8 3.9 6.2 6.7 15.4 6.7 22.3 0 6.3-1.6 14.8-3.1 16.4-1.9 2.1-0.7 2.2 4.4 0.5 7.7-2.6 21.2-3.8 31.2-2.8 26.8 2.7 53.2 22.9 66.1 50.6 1.6 3.4 3.2 6.2 3.5 6.2 0.4 0.1 0.9-1.2 1.2-2.8 0.3-1.6 2.3-4.9 4.4-7.4 9.4-11.1 26.6-16.5 42.2-13.2 10.3 2.1 19.6 6.3 28.8 12.8 10.3 7.3 14.2 11.4 20.2 21.7 5.5 9.2 6.1 8.8 4-2.4-1.4-7.5-0.7-9 1.8-4.1 1.2 2.2 4.2 8 6.8 12.8 2.6 4.9 6 12.3 7.5 16.5 1.6 4.3 3.5 9.2 4.2 11l1.5 3.3 1.7-7.3c1.7-7.2 14.1-33.8 15.8-33.8 0.4 0 0.8-0.9 0.8-1.9 0-1 0.7-2.2 1.6-2.5 1.3-0.5 1.5-0.2 1 1.6-0.4 1.3-0.9 5.2-1.2 8.8l-0.6 6.5 2.5-4.1c13.2-22.2 32.3-35.9 55-39.4 6.5-0.9 9-0.9 15.3 0.4 14 2.9 23.2 9.8 27.6 20.6l1.5 3.5 3.8-7.5c14.5-28.8 38.6-46.8 66.7-50 10.3-1.2 21.9 0 30.6 3 2.8 1 5.2 1.8 5.2 1.7 0-0.1-0.9-2.6-2-5.5-3.9-10.2-2-25 4.7-35.5 4.2-6.6 13.2-15.6 20.3-20.2 8.1-5.3 19.1-10.9 24.8-12.6 6-1.8 3.8-2.6-8.7-3.3-15.2-0.9-18-1.3-24.7-3-3.2-0.8-14.9-3.3-25.9-5.5-21.9-4.4-45-10.9-60.9-17.2-14.5-5.8-35.2-17.1-34.2-18.7 0.3-0.5 4.4-3.3 9.3-6.2l8.8-5.5-9-0.7c-9.7-0.8-19-2.8-27.3-5.8-2.9-1.1-5.5-2-5.8-2-0.4 0-0.3 1.5 0 3.3 1.3 6.9-2.7 21.7-8.3 30.7-9.8 15.7-23.7 25.9-39 28.6l-7.6 1.3-6-5.7c-3.3-3.1-6.1-5.8-6.3-5.9-0.2-0.1 0.8-1.7 2.2-3.6 1.4-1.9 2.6-3.7 2.6-4.1 0-0.5 0.9-2 1.9-3.5 1-1.4 3-6 4.2-10.1 2.2-6.8 2.4-9.3 2.4-26.5 0-12.1-0.5-21.1-1.4-24.8l-1.3-5.9-2.7 2.6c-1.5 1.4-7.1 9.5-12.6 17.9l-9.8 15.3h-12.6c-6.9 0-13.8 0.3-15.4 0.6-2.5 0.6-3.1 0.2-7.5-6.8-2.6-4.2-8.4-13.2-12.8-20.1l-8.1-12.6zm73.9 53.9c-2.8 8.2-7.3 12.7-16.7 16.4-3.9 1.6-7.4 2.7-7.7 2.5-1-1.1 6.6-10.7 12.1-15.5 6.1-5.2 13.6-10.6 14.1-10 0.2 0.1-0.7 3.1-1.8 6.6zm-137.9-3.7c0 5.5 5.8 18.9 10.9 25.5 3 3.8 12.9 11.8 18.6 15.1 2.2 1.3 6.7 3.4 10 4.7 7.2 2.8 5.1 3.2-2.6 0.5-7.6-2.6-13.5-5.7-19.6-10.2-6.5-4.8-6.5-4.4-1.8 10 4 11.9 11.6 28.4 17.3 37.5 7.1 11.3 6.6 11.6-1 0.6-9.5-13.6-17.9-31.8-21.8-46.8-1.1-4.6-3.6-11.7-5.6-15.8-1.9-4.1-3.7-8.8-4.1-10.4-1-5.1-1.9-4.2-3.6 3.3-6.3 27-9.7 61-12.4 124.2-0.7 14.6-0.8 15.4-1.4 8.5-1-12.1-1-43.7 0.1-57.6 2.2-28.4 7.9-64.9 12.6-81.3 0.8-2.9 1.3-5.5 1.1-5.8-0.5-0.5-13.6 9.9-24.1 19.1-28.2 24.8-37.2 33.2-53.1 49.1-10 9.9-22.2 22.5-27.3 28-5 5.5-9.1 9.7-9.2 9.3 0-1.3 16.2-20.4 28.8-33.8 13.3-14.2 29.1-29.1 48-45.5 6.1-5.4 11.2-10 11.2-10.1 0-0.4-8.7 2.9-18.7 7.1-8.7 3.6-26.7 8.2-39.2 9.9-15.3 2.1-32.2 3.9-32.7 3.4-0.2-0.3 4.2-1 9.8-1.7 39-4.8 75.5-16.6 97.5-31.6 5.9-4.1 11.1-7.5 11.6-7.5 0.4 0 0.7 1 0.7 2.3zm80.6 2c9.6 7.1 20.8 20.7 17.1 20.7-2 0-12.5-4.7-15.8-7.1-3.9-2.7-10.7-17.9-8-17.9 0.5 0 3.5 1.9 6.7 4.3zm144 3.3c15 10.2 32.3 17.5 56.9 23.9 11.5 3 30.5 6.7 40.5 7.8l3.5 0.4-3.6 0.1c-6.1 0.3-33.7-3.7-44.4-6.4-10.1-2.5-24-7.6-32.7-12-2.6-1.3-5-2.4-5.4-2.4-0.7 0 5.4 5.5 20.1 18 13.8 11.8 43.4 41.3 54.5 54.5 14.7 17.3 16.5 20.4 4.8 8.1-27.4-28.8-46.2-46.8-80.3-76.6-21.8-19-25.4-21.3-22.7-14.2 3.2 8.1 9.3 43.7 11.9 68.7 1.9 18.7 2.3 70.3 0.6 78.5-0.7 3.4-1.1-3.7-1.6-27.5-0.6-32.2-1.7-46.9-6.2-80.1-2.3-16.6-6-37.2-6.9-38.1-0.2-0.3-1 1.3-1.6 3.4-0.7 2.1-2.5 6.3-4 9.3-1.5 3-4.2 10.4-6 16.5-5.4 18.3-15.9 39.9-24.1 49.5-2.7 3.1-2.6 2.8 0.7-2.5 4-6.3 13.9-26.8 16.7-34.6 2.3-6.1 5.5-17.9 5-17.9-0.3 0-2.3 1.5-4.4 3.4-4.6 3.9-14.6 9-22 11.2-5.9 1.8-7.9 1.2-2.2-0.6 13.3-4.4 29-16.9 34.6-27.5 2.4-4.7 5.7-15.1 5.7-18.1 0-3.3 0.4-3.2 12.6 5.2zm-57.9 43c-0.3 0.3-1.2 0.4-1.9 0.1-0.8-0.3-0.5-0.6 0.6-0.6 1.1-0.1 1.7 0.2 1.3 0.5zm-47.4 7.9c16.9 4.4 26.9 15.5 29.7 32.9 2.8 17.7-4.7 37.1-17.4 45-9.5 5.9-9.8 6-28.8 6-9.8 0.1-17.8-0.2-17.8-0.5 0-0.3 3-2.8 6.8-5.5l6.7-4.9h9.2c11 0 13.3-1.3 17.6-9.6 6-11.9 6-30.8-0.2-43.4-5.2-10.6-12.7-14.5-27.5-14.5-18.3 0.1-28.9 5.6-27.1 14 0.5 2.2 0.3 3-0.7 3-4-0.1-6.8-5.5-5.8-11.1 1-5.3 4.4-8.7 11.1-11 7.1-2.4 35.4-2.7 44.2-0.4zm-20.5 35.1c0.3 29.7 0 33.9-2.4 34.8-1.3 0.5-1.5-2.8-1.3-27.7 0.2-30.6 0.5-36 2.3-35.4 0.8 0.3 1.2 8.6 1.4 28.3zm-6.8 2.1c0 17.6-0.4 30.4-1.1 32.8-0.6 2.2-2.7 5.7-4.7 7.8-4.1 4.2-13 10.3-13.8 9.4-0.3-0.3 0.1-1.8 0.9-3.4 3.4-6.4 3.9-11.3 4.6-37.3 0.6-25.7 0.7-26.6 3-30.4 2.3-3.7 7.3-7.6 9.9-7.6 0.9 0 1.2 6.4 1.2 28.7z"/>
	</g>
</svg>